<?xml version="1.0" encoding="utf-8"?>
<!-- Generated by IcoMoon.io -->
<!DOCTYPE svg PUBLIC "-//W3C//DTD SVG 1.1//EN" "http://www.w3.org/Graphics/SVG/1.1/DTD/svg11.dtd">
<svg version="1.1" xmlns="http://www.w3.org/2000/svg" xmlns:xlink="http://www.w3.org/1999/xlink" width="35" height="35" viewBox="0 0 35 35">
<g id="icomoon-ignore">
</g>
<path d="M24.917 17.5c4.708-2.985 7.896-8.723 7.896-15.313 0-0.741-0.041-1.471-0.119-2.188h-30.387c-0.078 0.717-0.119 1.447-0.119 2.188 0 6.59 3.187 12.327 7.896 15.313-4.708 2.985-7.896 8.723-7.896 15.313 0 0.741 0.041 1.471 0.119 2.188h30.387c0.078-0.717 0.119-1.447 0.119-2.188 0-6.59-3.187-12.327-7.896-15.313zM5.469 32.813c0-6.389 2.74-11.806 7.656-13.594v-3.438c-4.916-1.787-7.656-7.205-7.656-13.593v0h24.063c0 6.389-2.74 11.806-7.656 13.593v3.438c4.916 1.787 7.656 7.205 7.656 13.594h-24.063zM21.179 22.887c-2.449-1.389-2.584-3.191-2.585-4.285v-2.195c0-1.094 0.13-2.902 2.589-4.295 1.316-0.764 2.454-1.926 3.317-3.361h-13.999c0.864 1.437 2.003 2.599 3.321 3.363 2.449 1.389 2.584 3.191 2.585 4.285v2.195c0 1.093-0.13 2.902-2.589 4.295-2.482 1.442-4.332 4.296-4.891 7.736h17.147c-0.559-3.442-2.411-6.298-4.895-7.738z" fill="#000000"></path>
</svg>
