<?xml version="1.0" encoding="utf-8"?>
<!-- Generated by IcoMoon.io -->
<!DOCTYPE svg PUBLIC "-//W3C//DTD SVG 1.1//EN" "http://www.w3.org/Graphics/SVG/1.1/DTD/svg11.dtd">
<svg version="1.1" xmlns="http://www.w3.org/2000/svg" xmlns:xlink="http://www.w3.org/1999/xlink" width="35" height="35" viewBox="0 0 35 35">
<g id="icomoon-ignore">
</g>
<path d="M12.432 24.68l1.412-1.976-1.547-1.547-1.976 1.411c-0.366-0.205-0.759-0.368-1.171-0.485l-0.399-2.395h-2.187l-0.399 2.396c-0.412 0.117-0.805 0.28-1.171 0.485l-1.976-1.412-1.547 1.547 1.412 1.976c-0.205 0.366-0.368 0.759-0.485 1.171l-2.396 0.399v2.188l2.396 0.399c0.117 0.412 0.28 0.805 0.485 1.171l-1.412 1.976 1.547 1.547 1.976-1.411c0.366 0.205 0.759 0.368 1.171 0.485l0.399 2.395h2.188l0.399-2.396c0.412-0.117 0.805-0.28 1.171-0.485l1.976 1.411 1.547-1.547-1.412-1.976c0.205-0.366 0.368-0.759 0.485-1.171l2.396-0.399v-2.188l-2.396-0.399c-0.117-0.412-0.28-0.805-0.485-1.171zM7.656 29.531c-1.208 0-2.188-0.979-2.188-2.188s0.979-2.188 2.188-2.188 2.188 0.979 2.188 2.188-0.979 2.188-2.188 2.188zM35 13.125v-2.188l-2.303-0.419c-0.042-0.275-0.097-0.546-0.161-0.813l1.967-1.268-0.837-2.021-2.288 0.495c-0.144-0.236-0.298-0.466-0.461-0.688l1.333-1.926-1.547-1.547-1.926 1.333c-0.223-0.163-0.452-0.317-0.688-0.461l0.495-2.288-2.021-0.837-1.268 1.967c-0.267-0.065-0.538-0.119-0.813-0.161l-0.419-2.303h-2.188l-0.419 2.303c-0.275 0.042-0.546 0.097-0.813 0.161l-1.268-1.967-2.021 0.837 0.495 2.288c-0.236 0.144-0.466 0.298-0.688 0.461l-1.926-1.333-1.547 1.547 1.333 1.926c-0.163 0.223-0.317 0.452-0.461 0.688l-2.288-0.495-0.837 2.021 1.967 1.268c-0.065 0.267-0.119 0.538-0.161 0.813l-2.303 0.419v2.188l2.303 0.419c0.042 0.275 0.097 0.546 0.161 0.813l-1.967 1.268 0.837 2.021 2.288-0.495c0.144 0.236 0.298 0.465 0.461 0.688l-1.333 1.926 1.547 1.547 1.926-1.333c0.223 0.163 0.452 0.317 0.688 0.461l-0.495 2.288 2.021 0.837 1.268-1.967c0.267 0.065 0.538 0.119 0.813 0.161l0.419 2.303h2.188l0.419-2.303c0.275-0.042 0.546-0.097 0.813-0.161l1.268 1.967 2.021-0.837-0.495-2.288c0.236-0.144 0.466-0.298 0.688-0.461l1.926 1.333 1.547-1.547-1.333-1.926c0.163-0.223 0.317-0.452 0.461-0.688l2.288 0.495 0.837-2.021-1.967-1.268c0.065-0.267 0.119-0.538 0.161-0.813l2.303-0.419zM22.969 16.789c-2.628 0-4.758-2.13-4.758-4.758s2.13-4.758 4.758-4.758 4.758 2.13 4.758 4.758c0 2.628-2.13 4.758-4.758 4.758z" fill="#000000"></path>
</svg>
