<?xml version="1.0" encoding="utf-8"?>
<!-- Generated by IcoMoon.io -->
<!DOCTYPE svg PUBLIC "-//W3C//DTD SVG 1.1//EN" "http://www.w3.org/Graphics/SVG/1.1/DTD/svg11.dtd">
<svg version="1.1" xmlns="http://www.w3.org/2000/svg" xmlns:xlink="http://www.w3.org/1999/xlink" width="35" height="35" viewBox="0 0 35 35">
<g id="icomoon-ignore">
</g>
<path d="M30.492 6.43l-4.11-4.11c-1.276-1.276-3.797-2.32-5.602-2.32h-15.313c-1.805 0-3.281 1.477-3.281 3.281v28.438c0 1.805 1.477 3.281 3.281 3.281h24.063c1.805 0 3.281-1.477 3.281-3.281v-19.688c0-1.805-1.044-4.325-2.32-5.601zM21.875 4.633c0.075 0.027 0.152 0.057 0.231 0.090 0.617 0.256 1.046 0.553 1.183 0.69l4.11 4.11c0.137 0.137 0.434 0.566 0.69 1.183 0.033 0.079 0.063 0.156 0.090 0.231h-6.304v-6.304zM28.438 30.625h-21.875v-26.25h13.125v8.75h8.75v17.5zM8.75 17.5h17.5v2.188h-17.5zM8.75 21.875h17.5v2.188h-17.5zM8.75 26.25h17.5v2.188h-17.5z" fill="#000000"></path>
</svg>
