<?xml version="1.0" encoding="utf-8"?>
<!-- Generated by IcoMoon.io -->
<!DOCTYPE svg PUBLIC "-//W3C//DTD SVG 1.1//EN" "http://www.w3.org/Graphics/SVG/1.1/DTD/svg11.dtd">
<svg version="1.1" xmlns="http://www.w3.org/2000/svg" xmlns:xlink="http://www.w3.org/1999/xlink" width="35" height="35" viewBox="0 0 35 35">
<g id="icomoon-ignore">
</g>
<path d="M30.879 6.816l-4.883-4.883c-1.063-1.063-3.164-1.933-4.668-1.933h-16.406c-1.504 0-2.734 1.23-2.734 2.734v29.531c0 1.504 1.23 2.734 2.734 2.734h25.156c1.504 0 2.734-1.23 2.734-2.734v-20.781c0-1.504-0.87-3.605-1.933-4.668zM29.332 8.363c0.107 0.107 0.214 0.238 0.317 0.387h-5.587v-5.587c0.148 0.104 0.28 0.21 0.387 0.317l4.883 4.883zM30.625 32.266c0 0.296-0.25 0.547-0.547 0.547h-25.156c-0.296 0-0.547-0.25-0.547-0.547v-29.531c0-0.296 0.25-0.547 0.547-0.547h16.406c0.165 0 0.35 0.021 0.547 0.058v8.692h8.692c0.037 0.196 0.058 0.382 0.058 0.547v20.781z" fill="#000000"></path>
</svg>
