<?xml version="1.0" encoding="utf-8"?>
<!-- Generated by IcoMoon.io -->
<!DOCTYPE svg PUBLIC "-//W3C//DTD SVG 1.1//EN" "http://www.w3.org/Graphics/SVG/1.1/DTD/svg11.dtd">
<svg version="1.1" xmlns="http://www.w3.org/2000/svg" xmlns:xlink="http://www.w3.org/1999/xlink" width="35" height="35" viewBox="0 0 35 35">
<g id="icomoon-ignore">
</g>
<path d="M24.063 4.375h-4.375v-2.188c0-1.203-0.984-2.188-2.188-2.188h-4.375c-1.203 0-2.188 0.984-2.188 2.188v2.188h-4.375v4.375h17.5v-4.375zM17.5 4.375h-4.375v-2.184c0.001-0.001 0.002-0.003 0.004-0.004h4.367c0.001 0.001 0.003 0.003 0.004 0.004v2.184zM28.438 10.938v-5.469c0-0.602-0.492-1.094-1.094-1.094h-2.188v2.188h1.094v4.375h-6.563l-6.563 6.563v8.75h-8.75v-19.688h1.094v-2.188h-2.188c-0.602 0-1.094 0.492-1.094 1.094v21.875c0 0.602 0.492 1.094 1.094 1.094h9.844v6.563h21.875v-24.063h-6.563zM19.688 14.031v3.469h-3.469l3.469-3.469zM32.813 32.813h-17.5v-13.125h6.563v-6.563h10.938v19.688z" fill="#000000"></path>
</svg>
