<?xml version="1.0" encoding="utf-8"?>
<!-- Generated by IcoMoon.io -->
<!DOCTYPE svg PUBLIC "-//W3C//DTD SVG 1.1//EN" "http://www.w3.org/Graphics/SVG/1.1/DTD/svg11.dtd">
<svg version="1.1" xmlns="http://www.w3.org/2000/svg" xmlns:xlink="http://www.w3.org/1999/xlink" width="35" height="35" viewBox="0 0 35 35">
<g id="icomoon-ignore">
</g>
<path d="M13.125 4.375c0-2.416 1.959-4.375 4.375-4.375s4.375 1.959 4.375 4.375c0 2.416-1.959 4.375-4.375 4.375s-4.375-1.959-4.375-4.375zM22.406 8.219c0-2.416 1.959-4.375 4.375-4.375s4.375 1.959 4.375 4.375c0 2.416-1.959 4.375-4.375 4.375s-4.375-1.959-4.375-4.375zM28.438 17.5c0-1.208 0.979-2.188 2.188-2.188s2.188 0.979 2.188 2.188c0 1.208-0.979 2.188-2.188 2.188s-2.188-0.979-2.188-2.188zM24.593 26.781c0-1.208 0.979-2.188 2.188-2.188s2.188 0.979 2.188 2.188c0 1.208-0.979 2.188-2.188 2.188s-2.188-0.979-2.188-2.188zM15.313 30.625c0 0 0 0 0 0 0-1.208 0.979-2.188 2.188-2.188s2.188 0.979 2.188 2.188c0 0 0 0 0 0 0 1.208-0.979 2.188-2.188 2.188s-2.188-0.979-2.188-2.188zM6.032 26.781c0 0 0 0 0 0 0-1.208 0.979-2.188 2.188-2.188s2.187 0.979 2.187 2.188c0 0 0 0 0 0 0 1.208-0.979 2.188-2.188 2.188s-2.187-0.979-2.187-2.188zM4.938 8.219c0 0 0 0 0 0 0-1.812 1.469-3.281 3.281-3.281s3.281 1.469 3.281 3.281c0 0 0 0 0 0 0 1.812-1.469 3.281-3.281 3.281s-3.281-1.469-3.281-3.281zM1.914 17.5c0-1.359 1.102-2.461 2.461-2.461s2.461 1.102 2.461 2.461c0 1.359-1.102 2.461-2.461 2.461s-2.461-1.102-2.461-2.461z" fill="#000000"></path>
</svg>
