<?xml version="1.0" encoding="utf-8"?>
<!-- Generated by IcoMoon.io -->
<!DOCTYPE svg PUBLIC "-//W3C//DTD SVG 1.1//EN" "http://www.w3.org/Graphics/SVG/1.1/DTD/svg11.dtd">
<svg version="1.1" xmlns="http://www.w3.org/2000/svg" xmlns:xlink="http://www.w3.org/1999/xlink" width="35" height="35" viewBox="0 0 35 35">
<g id="icomoon-ignore">
</g>
<path d="M17.5 0c-9.665 0-17.5 7.835-17.5 17.5s7.835 17.5 17.5 17.5 17.5-7.835 17.5-17.5-7.835-17.5-17.5-17.5zM17.5 8.75c4.832 0 8.75 3.918 8.75 8.75s-3.918 8.75-8.75 8.75-8.75-3.918-8.75-8.75 3.918-8.75 8.75-8.75zM27.941 27.941c-2.789 2.789-6.497 4.325-10.441 4.325s-7.652-1.536-10.441-4.325c-2.789-2.789-4.325-6.497-4.325-10.441s1.536-7.652 4.325-10.441l2.32 2.32c0 0 0 0 0 0-4.478 4.478-4.478 11.764 0 16.241 2.169 2.169 5.053 3.364 8.121 3.364s5.952-1.195 8.121-3.364c4.478-4.478 4.478-11.764 0-16.241l2.32-2.32c2.789 2.789 4.325 6.497 4.325 10.441s-1.536 7.652-4.325 10.441z" fill="#000000"></path>
</svg>
