<?xml version="1.0" encoding="utf-8"?>
<!-- Generated by IcoMoon.io -->
<!DOCTYPE svg PUBLIC "-//W3C//DTD SVG 1.1//EN" "http://www.w3.org/Graphics/SVG/1.1/DTD/svg11.dtd">
<svg version="1.1" xmlns="http://www.w3.org/2000/svg" xmlns:xlink="http://www.w3.org/1999/xlink" width="35" height="35" viewBox="0 0 35 35">
<g id="icomoon-ignore">
</g>
<path d="M35 17.5c-0.044-2.285-0.539-4.564-1.455-6.647-0.913-2.085-2.237-3.974-3.864-5.534-1.625-1.562-3.553-2.797-5.639-3.611-2.085-0.818-4.327-1.208-6.542-1.161-2.215 0.044-4.421 0.525-6.437 1.414-2.018 0.885-3.847 2.169-5.357 3.745-1.512 1.575-2.706 3.442-3.493 5.462-0.79 2.019-1.166 4.188-1.119 6.332 0.044 2.145 0.511 4.278 1.372 6.228 0.857 1.952 2.101 3.72 3.627 5.18 1.525 1.461 3.332 2.615 5.285 3.374 1.952 0.762 4.048 1.125 6.123 1.078 2.075-0.044 4.134-0.497 6.018-1.33 1.885-0.83 3.593-2.033 5.003-3.508 1.411-1.475 2.524-3.221 3.256-5.107 0.445-1.144 0.748-2.338 0.907-3.548 0.043 0.002 0.085 0.004 0.129 0.004 1.208 0 2.188-0.979 2.188-2.188 0-0.061-0.003-0.122-0.008-0.182h0.008zM31.524 23.309c-0.802 1.818-1.965 3.466-3.39 4.825-1.424 1.361-3.11 2.433-4.93 3.137-1.819 0.707-3.77 1.041-5.704 0.994-1.935-0.044-3.848-0.469-5.599-1.247-1.752-0.775-3.339-1.897-4.648-3.271s-2.342-3-3.019-4.753c-0.679-1.753-0.999-3.63-0.952-5.495 0.045-1.865 0.456-3.705 1.205-5.39 0.747-1.685 1.829-3.212 3.153-4.471s2.889-2.251 4.576-2.9c1.686-0.651 3.491-0.957 5.285-0.911 1.794 0.045 3.562 0.442 5.18 1.163 1.618 0.719 3.085 1.76 4.294 3.035s2.16 2.779 2.782 4.399c0.624 1.62 0.915 3.352 0.869 5.076h0.008c-0.005 0.060-0.008 0.121-0.008 0.182 0 1.128 0.854 2.057 1.951 2.175-0.213 1.19-0.565 2.352-1.052 3.452z" fill="#000000"></path>
</svg>
