<?xml version="1.0" encoding="utf-8"?>
<!-- Generated by IcoMoon.io -->
<!DOCTYPE svg PUBLIC "-//W3C//DTD SVG 1.1//EN" "http://www.w3.org/Graphics/SVG/1.1/DTD/svg11.dtd">
<svg version="1.1" xmlns="http://www.w3.org/2000/svg" xmlns:xlink="http://www.w3.org/1999/xlink" width="35" height="35" viewBox="0 0 35 35">
<g id="icomoon-ignore">
</g>
<path d="M17.5 0c-9.528 0-17.276 7.614-17.495 17.089 0.202-8.267 6.488-14.901 14.214-14.901 7.853 0 14.219 6.856 14.219 15.313 0 1.812 1.469 3.281 3.281 3.281s3.281-1.469 3.281-3.281c0-9.665-7.835-17.5-17.5-17.5zM17.5 35c9.528 0 17.276-7.614 17.495-17.089-0.202 8.267-6.488 14.901-14.214 14.901-7.853 0-14.219-6.856-14.219-15.313 0-1.812-1.469-3.281-3.281-3.281s-3.281 1.469-3.281 3.281c0 9.665 7.835 17.5 17.5 17.5z" fill="#000000"></path>
</svg>
