<?xml version="1.0" encoding="utf-8"?>
<!-- Generated by IcoMoon.io -->
<!DOCTYPE svg PUBLIC "-//W3C//DTD SVG 1.1//EN" "http://www.w3.org/Graphics/SVG/1.1/DTD/svg11.dtd">
<svg version="1.1" xmlns="http://www.w3.org/2000/svg" xmlns:xlink="http://www.w3.org/1999/xlink" width="35" height="35" viewBox="0 0 35 35">
<g id="icomoon-ignore">
</g>
<path d="M6.563 17.5c0-0.416 0.024-0.827 0.069-1.231l-6.323-2.054c-0.202 1.064-0.309 2.162-0.309 3.286 0 5.032 2.125 9.568 5.525 12.76l3.906-5.376c-1.782-1.946-2.869-4.538-2.869-7.384zM28.438 17.5c0 2.846-1.087 5.438-2.869 7.384l3.906 5.376c3.4-3.192 5.525-7.728 5.525-12.76 0-1.123-0.107-2.221-0.309-3.286l-6.323 2.054c0.045 0.404 0.069 0.815 0.069 1.231zM19.688 6.782c3.142 0.638 5.795 2.623 7.33 5.326l6.322-2.054c-2.502-5.312-7.596-9.162-13.652-9.917v6.646zM7.983 12.108c1.535-2.703 4.188-4.688 7.33-5.326v-6.646c-6.056 0.755-11.15 4.605-13.652 9.917l6.322 2.054zM22.031 27.457c-1.381 0.629-2.915 0.98-4.531 0.98s-3.15-0.351-4.531-0.98l-3.906 5.377c2.502 1.38 5.378 2.166 8.437 2.166s5.935-0.786 8.437-2.166l-3.906-5.377z" fill="#000000"></path>
</svg>
