<?xml version="1.0" encoding="utf-8"?>
<!-- Generated by IcoMoon.io -->
<!DOCTYPE svg PUBLIC "-//W3C//DTD SVG 1.1//EN" "http://www.w3.org/Graphics/SVG/1.1/DTD/svg11.dtd">
<svg version="1.1" xmlns="http://www.w3.org/2000/svg" xmlns:xlink="http://www.w3.org/1999/xlink" width="35" height="35" viewBox="0 0 35 35">
<g id="icomoon-ignore">
</g>
<path d="M28.984 35h-22.969c-0.906 0-1.641-0.735-1.641-1.641 0-2.354 0.994-5.202 2.658-7.62 1.391-2.021 3.1-3.542 4.945-4.43-0.813-0.74-1.514-1.642-2.068-2.67-0.889-1.65-1.359-3.556-1.359-5.514 0-2.721 0.896-5.292 2.522-7.239 1.697-2.032 3.98-3.152 6.427-3.152s4.729 1.119 6.427 3.152c1.626 1.947 2.522 4.518 2.522 7.239 0 1.958-0.47 3.865-1.358 5.514-0.554 1.029-1.255 1.93-2.068 2.67 1.845 0.888 3.554 2.409 4.945 4.43 1.664 2.418 2.658 5.266 2.658 7.62 0 0.906-0.735 1.641-1.641 1.641zM7.864 31.719h19.272c-0.315-1.345-0.975-2.816-1.872-4.119-1.417-2.059-3.185-3.405-4.978-3.791-0.756-0.163-1.295-0.831-1.295-1.604v-1.172c0-0.59 0.317-1.134 0.83-1.426 2.033-1.156 3.347-3.7 3.347-6.481 0-3.92-2.542-7.109-5.668-7.109s-5.668 3.189-5.668 7.109c0 2.781 1.314 5.325 3.347 6.481 0.513 0.292 0.829 0.836 0.829 1.426v1.172c0 0.773-0.539 1.441-1.295 1.604-1.793 0.386-3.561 1.733-4.978 3.791-0.897 1.303-1.556 2.774-1.872 4.119z" fill="#000000"></path>
</svg>
