<?xml version="1.0" encoding="utf-8"?>
<!-- Generated by IcoMoon.io -->
<!DOCTYPE svg PUBLIC "-//W3C//DTD SVG 1.1//EN" "http://www.w3.org/Graphics/SVG/1.1/DTD/svg11.dtd">
<svg version="1.1" xmlns="http://www.w3.org/2000/svg" xmlns:xlink="http://www.w3.org/1999/xlink" width="35" height="35" viewBox="0 0 35 35">
<g id="icomoon-ignore">
</g>
<path d="M34.28 27.955l-15.742-13.493c0.733-1.377 1.149-2.949 1.149-4.618 0-5.437-4.407-9.844-9.844-9.844-0.994 0-1.954 0.148-2.859 0.422l5.687 5.687c0.851 0.851 0.851 2.243 0 3.094l-3.469 3.469c-0.851 0.851-2.243 0.851-3.094 0l-5.687-5.687c-0.274 0.905-0.422 1.865-0.422 2.859 0 5.437 4.407 9.844 9.844 9.844 1.669 0 3.241-0.416 4.618-1.149l13.493 15.742c0.783 0.913 2.12 0.965 2.97 0.114l3.469-3.469c0.851-0.851 0.799-2.187-0.114-2.97z" fill="#000000"></path>
</svg>
