<?xml version="1.0" encoding="utf-8"?>
<!-- Generated by IcoMoon.io -->
<!DOCTYPE svg PUBLIC "-//W3C//DTD SVG 1.1//EN" "http://www.w3.org/Graphics/SVG/1.1/DTD/svg11.dtd">
<svg version="1.1" xmlns="http://www.w3.org/2000/svg" xmlns:xlink="http://www.w3.org/1999/xlink" width="35" height="35" viewBox="0 0 35 35">
<g id="icomoon-ignore">
</g>
<path d="M12.031 16.406h1.094v-1.094h-1.094v1.094zM12.031 19.688h1.094v-1.094h-1.094v1.094zM12.031 13.125h1.094v-1.094h-1.094v1.094zM12.031 22.969h1.094v-1.094h-1.094v1.094zM12.031 26.25h1.094v-1.094h-1.094v1.094zM14.219 19.688h8.75v-1.094h-8.75v1.094zM14.219 13.125h8.75v-1.094h-8.75v1.094zM22.901 4.375h-15.245v26.25h19.688v-21.875l-4.443-4.375zM25.156 28.37h-15.313v-21.807h10.938v3.213h4.375v18.594zM14.219 22.969h8.75v-1.094h-8.75v1.094zM14.219 16.406h8.75v-1.094h-8.75v1.094zM14.219 26.25h8.75v-1.094h-8.75v1.094z" fill="#000000"></path>
</svg>
