<?xml version="1.0" encoding="utf-8"?>
<!-- Generated by IcoMoon.io -->
<!DOCTYPE svg PUBLIC "-//W3C//DTD SVG 1.1//EN" "http://www.w3.org/Graphics/SVG/1.1/DTD/svg11.dtd">
<svg version="1.1" xmlns="http://www.w3.org/2000/svg" xmlns:xlink="http://www.w3.org/1999/xlink" width="38" height="35" viewBox="0 0 38 35">
<g id="icomoon-ignore">
</g>
<path d="M9.221 10.013h22.923c2.36 0 2.36-2.448 0.092-2.448h-15.844c-0.908 0-1.361-1.361-1.361-1.361s-0.635-1.996-1.906-1.996h-11.8c-1.724 0-1.271 1.996-1.271 1.996s2.633 22.389 2.814 23.751 1.589 1.763 1.589 1.763l3.085-19.8c0.228-1.451 1.225-1.859 1.679-1.905zM36.813 10.874h-26.866c-0.802 0-1.453 0.65-1.453 1.451l-2.813 17.937c0 0.803 0.651 1.453 1.453 1.453h26.866c0.801 0 1.453-0.65 1.453-1.453l2.813-17.937c0-0.802-0.649-1.451-1.453-1.451z" fill="#000000"></path>
</svg>
