<?xml version="1.0" encoding="utf-8"?>
<!-- Generated by IcoMoon.io -->
<!DOCTYPE svg PUBLIC "-//W3C//DTD SVG 1.1//EN" "http://www.w3.org/Graphics/SVG/1.1/DTD/svg11.dtd">
<svg version="1.1" xmlns="http://www.w3.org/2000/svg" xmlns:xlink="http://www.w3.org/1999/xlink" width="35" height="35" viewBox="0 0 35 35">
<g id="icomoon-ignore">
</g>
<path d="M28.438 10.938v-5.469c0-0.602-0.492-1.094-1.094-1.094h-7.656v-2.188c0-1.203-0.984-2.188-2.188-2.188h-4.375c-1.203 0-2.188 0.984-2.188 2.188v2.188h-7.656c-0.602 0-1.094 0.492-1.094 1.094v21.875c0 0.602 0.492 1.094 1.094 1.094h9.844v6.563h15.313l6.563-6.563v-17.5h-6.563zM13.125 2.191c0.001-0.001 0.002-0.003 0.004-0.004h4.367c0.001 0.001 0.003 0.003 0.004 0.004v2.184h-4.375v-2.184zM6.563 8.75v-2.188h17.5v2.188h-17.5zM28.438 31.906v-3.469h3.469l-3.469 3.469zM32.813 26.25h-6.563v6.563h-10.938v-19.688h17.5v13.125z" fill="#000000"></path>
</svg>
