<?xml version="1.0" encoding="utf-8"?>
<!-- Generated by IcoMoon.io -->
<!DOCTYPE svg PUBLIC "-//W3C//DTD SVG 1.1//EN" "http://www.w3.org/Graphics/SVG/1.1/DTD/svg11.dtd">
<svg version="1.1" xmlns="http://www.w3.org/2000/svg" xmlns:xlink="http://www.w3.org/1999/xlink" width="35" height="35" viewBox="0 0 35 35">
<path d="M26.25 14.194c-4.228 0-7.656 3.454-7.656 7.716 0 2.428 1.116 4.59 2.854 6.006-2.249 1.668-3.947 2.721-3.947 2.721s-15.313-9.463-15.313-17.087c0-4.594 2.825-9.186 8.203-9.186 4.922 0 7.109 4.699 7.109 4.699s1.914-4.699 7.109-4.699 8.111 4.501 8.111 9.186c0 1.048-0.297 2.125-0.783 3.207-1.401-1.571-3.428-2.564-5.688-2.564zM26.25 15.295c3.624 0 6.563 2.961 6.563 6.614s-2.939 6.615-6.563 6.615c-3.625 0-6.563-2.962-6.563-6.615s2.938-6.614 6.563-6.614zM22.969 23.011h6.563v-2.205h-6.563v2.205z" fill="#000000"></path>
</svg>
