<svg display="none" version="1.1" xmlns="http://www.w3.org/2000/svg" xmlns:xlink="http://www.w3.org/1999/xlink">
<defs>
<symbol id="icon-home" viewBox="0 0 1024 1024">
	<title>home</title>
	<path class="path1" d="M1024 590.444l-512-397.426-512 397.428v-162.038l512-397.426 512 397.428zM896 576v384h-256v-256h-256v256h-256v-384l384-288z" />
</symbol>
<symbol id="icon-pencil" viewBox="0 0 1024 1024">
	<title>pencil</title>
	<path class="path1" d="M864 0c88.364 0 160 71.634 160 160 0 36.020-11.91 69.258-32 96l-64 64-224-224 64-64c26.742-20.090 59.978-32 96-32zM64 736l-64 288 288-64 592-592-224-224-592 592zM715.578 363.578l-448 448-55.156-55.156 448-448 55.156 55.156z" />
</symbol>
<symbol id="icon-pencil2" viewBox="0 0 1024 1024">
	<title>pencil2</title>
	<path class="path1" d="M384 640l128-64 448-448-64-64-448 448-64 128zM289.3 867.098c-31.632-66.728-65.666-100.762-132.396-132.394l99.096-272.792 128-77.912 384-384h-192l-384 384-192 640 640-192 384-384v-192l-384 384-77.912 128z" />
</symbol>
<symbol id="icon-file" viewBox="0 0 1024 1024">
	<title>file</title>
	<path class="path1" d="M892.118 188.118l-120.234-120.236c-37.338-37.336-111.084-67.882-163.884-67.882h-448c-52.8 0-96 43.2-96 96v832c0 52.8 43.2 96 96 96h704c52.8 0 96-43.2 96-96v-576c0-52.8-30.546-126.546-67.882-163.882zM640 135.562c2.196 0.804 4.452 1.68 6.758 2.636 18.060 7.482 30.598 16.176 34.616 20.194l120.236 120.238c4.018 4.018 12.712 16.554 20.194 34.614 0.956 2.306 1.832 4.562 2.636 6.756h-184.44v-184.438zM832 896h-640v-768h384v256h256v512z" />
</symbol>
<symbol id="icon-file2" viewBox="0 0 1024 1024">
	<title>file2</title>
	<path class="path1" d="M892.118 188.118l-120.234-120.236c-37.338-37.336-111.084-67.882-163.884-67.882h-448c-52.8 0-96 43.2-96 96v832c0 52.8 43.2 96 96 96h704c52.8 0 96-43.2 96-96v-576c0-52.8-30.546-126.546-67.882-163.882zM640 135.562c2.196 0.804 4.452 1.68 6.758 2.636 18.060 7.482 30.598 16.176 34.616 20.194l120.236 120.238c4.018 4.018 12.712 16.554 20.194 34.614 0.956 2.306 1.832 4.562 2.636 6.756h-184.44v-184.438zM832 896h-640v-768h384v256h256v512zM256 512h512v64h-512zM256 640h512v64h-512zM256 768h512v64h-512z" />
</symbol>
<symbol id="icon-file3" viewBox="0 0 1024 1024">
	<title>file3</title>
	<path class="path1" d="M903.432 199.43l-142.864-142.862c-31.112-31.112-92.568-56.568-136.568-56.568h-480c-44 0-80 36-80 80v864c0 44 36 80 80 80h736c44 0 80-36 80-80v-608c0-44-25.456-105.458-56.568-136.57zM858.178 244.686c3.13 3.13 6.25 6.974 9.28 11.314h-163.458v-163.456c4.34 3.030 8.184 6.15 11.314 9.28l142.864 142.862zM896 944c0 8.672-7.328 16-16 16h-736c-8.672 0-16-7.328-16-16v-864c0-8.672 7.328-16 16-16h480c4.832 0 10.254 0.61 16 1.704v254.296h254.296c1.094 5.746 1.704 11.166 1.704 16v608z" />
</symbol>
<symbol id="icon-copy" viewBox="0 0 1024 1024">
	<title>copy</title>
	<path class="path1" d="M832 256h-192v-64l-192-192h-448v768h384v256h640v-576l-192-192zM832 346.51l101.49 101.49h-101.49v-101.49zM448 90.51l101.49 101.49h-101.49v-101.49zM64 64h320v192h192v448h-512v-640zM960 960h-512v-192h192v-448h128v192h192v448z" />
</symbol>
<symbol id="icon-copy2" viewBox="0 0 1024 1024">
	<title>copy2</title>
	<path class="path1" d="M864 128h-64v64h32v512h-256v256h-384v-768h32v-64h-64c-17.602 0-32 14.4-32 32v832c0 17.6 14.398 32 32 32h504l232-232v-632c0-17.6-14.4-32-32-32zM640 960v-192h192l-192 192zM768 128h-128v-64c0-35.2-28.8-64-64-64h-128c-35.204 0-64 28.8-64 64v64h-128v128h512v-128zM576 128h-128v-63.886c0.034-0.038 0.072-0.078 0.114-0.114h127.768c0.042 0.036 0.082 0.076 0.118 0.114v63.886z" />
</symbol>
<symbol id="icon-copy3" viewBox="0 0 1024 1024">
	<title>copy3</title>
	<path class="path1" d="M640 256v-256h-448l-192 192v576h384v256h640v-768h-384zM192 90.51v101.49h-101.49l101.49-101.49zM64 704v-448h192v-192h320v192l-192 192v256h-320zM576 346.51v101.49h-101.49l101.49-101.49zM960 960h-512v-448h192v-192h320v640z" />
</symbol>
<symbol id="icon-paste" viewBox="0 0 1024 1024">
	<title>paste</title>
	<path class="path1" d="M704 128h-128v-64c0-35.2-28.8-64-64-64h-128c-35.204 0-64 28.8-64 64v64h-128v128h512v-128zM512 128h-128v-63.886c0.034-0.038 0.072-0.078 0.114-0.114h127.768c0.042 0.036 0.082 0.076 0.118 0.114v63.886zM832 320v-160c0-17.6-14.4-32-32-32h-64v64h32v128h-384v448h-256v-576h32v-64h-64c-17.602 0-32 14.4-32 32v640c0 17.6 14.398 32 32 32h288v192h448l192-192v-512h-192zM832 933.49v-101.49h101.49l-101.49 101.49zM960 768h-192v192h-320v-576h512v384z" />
</symbol>
<symbol id="icon-paste2" viewBox="0 0 1024 1024">
	<title>paste2</title>
	<path class="path1" d="M832 320v-160c0-17.6-14.4-32-32-32h-224v-64c0-35.2-28.8-64-64-64h-128c-35.204 0-64 28.8-64 64v64h-224c-17.602 0-32 14.4-32 32v640c0 17.6 14.398 32 32 32h288v192h448l192-192v-512h-192zM384 64.114c0.034-0.038 0.072-0.078 0.114-0.114h127.768c0.042 0.036 0.082 0.076 0.118 0.114v63.886h-128v-63.886zM192 256v-64h512v64h-512zM832 933.49v-101.49h101.49l-101.49 101.49zM960 768h-192v192h-320v-576h512v384z" />
</symbol>
<symbol id="icon-paste3" viewBox="0 0 1024 1024">
	<title>paste3</title>
	<path class="path1" d="M704 128h-128v-64c0-35.2-28.8-64-64-64h-128c-35.204 0-64 28.8-64 64v64h-128v128h512v-128zM512 128h-128v-63.886c0.034-0.038 0.072-0.078 0.114-0.114h127.768c0.042 0.036 0.082 0.076 0.118 0.114v63.886zM832 320v-160c0-17.6-14.4-32-32-32h-64v64h32v128h-192l-192 192v256h-256v-576h32v-64h-64c-17.602 0-32 14.4-32 32v640c0 17.6 14.398 32 32 32h288v192h640v-704h-192zM576 410.51v101.49h-101.49l101.49-101.49zM960 960h-512v-384h192v-192h320v576z" />
</symbol>
<symbol id="icon-folder" viewBox="0 0 1024 1024">
	<title>folder</title>
	<path class="path1" d="M0 320h1024l-64 640h-896l-64-640zM928 192l32 64h-896l64-128h352l32 64h416z" />
</symbol>
<symbol id="icon-folder-open" viewBox="0 0 1024 1024">
	<title>folder-open</title>
	<path class="path1" d="M832 960l192-512h-832l-192 512zM128 384l-128 576v-832h288l128 128h416v128z" />
</symbol>
<symbol id="icon-print" viewBox="0 0 1024 1024">
	<title>print</title>
	<path class="path1" d="M256 64h512v128h-512zM960 256h-896c-35.2 0-64 28.8-64 64v320c0 35.2 28.796 64 64 64h192v256h512v-256h192c35.2 0 64-28.8 64-64v-320c0-35.2-28.8-64-64-64zM704 896h-384v-320h384v320zM974.4 352c0 25.626-20.774 46.4-46.398 46.4-25.626 0-46.402-20.774-46.402-46.4s20.776-46.4 46.402-46.4c25.626 0 46.398 20.774 46.398 46.4z" />
</symbol>
<symbol id="icon-box-add" viewBox="0 0 1024 1024">
	<title>box-add</title>
	<path class="path1" d="M832 64h-640l-192 192v672c0 17.674 14.326 32 32 32h960c17.672 0 32-14.326 32-32v-672l-192-192zM512 832l-320-256h192v-192h256v192h192l-320 256zM154.51 192l64-64h586.978l64 64h-714.978z" />
</symbol>
<symbol id="icon-box-remove" viewBox="0 0 1024 1024">
	<title>box-remove</title>
	<path class="path1" d="M832 64h-640l-192 192v672c0 17.674 14.326 32 32 32h960c17.672 0 32-14.326 32-32v-672l-192-192zM640 640v192h-256v-192h-192l320-256 320 256h-192zM154.51 192l64-64h586.976l64 64h-714.976z" />
</symbol>
<symbol id="icon-download" viewBox="0 0 1024 1024">
	<title>download</title>
	<path class="path1" d="M512 576l256-256h-192v-256h-128v256h-192zM744.726 471.272l-71.74 71.742 260.080 96.986-421.066 157.018-421.066-157.018 260.080-96.986-71.742-71.742-279.272 104.728v256l512 192 512-192v-256z" />
</symbol>
<symbol id="icon-upload" viewBox="0 0 1024 1024">
	<title>upload</title>
	<path class="path1" d="M448 576h128v-256h192l-256-256-256 256h192zM640 432v98.712l293.066 109.288-421.066 157.018-421.066-157.018 293.066-109.288v-98.712l-384 144v256l512 192 512-192v-256z" />
</symbol>
<symbol id="icon-disk" viewBox="0 0 1024 1024">
	<title>disk</title>
	<path class="path1" d="M896 0h-896v1024h1024v-896l-128-128zM512 128h128v256h-128v-256zM896 896h-768v-768h64v320h576v-320h74.978l53.022 53.018v714.982z" />
</symbol>
<symbol id="icon-storage" viewBox="0 0 1024 1024">
	<title>storage</title>
	<path class="path1" d="M192 896h640c106.038 0 192-85.96 192-192h-1024c0 106.040 85.962 192 192 192zM832 768h64v64h-64v-64zM960 128h-896l-64 512h1024z" />
</symbol>
<symbol id="icon-undo" viewBox="0 0 1024 1024">
	<title>undo</title>
	<path class="path1" d="M761.862 1024c113.726-206.032 132.888-520.306-313.862-509.824v253.824l-384-384 384-384v248.372c534.962-13.942 594.57 472.214 313.862 775.628z" />
</symbol>
<symbol id="icon-user" viewBox="0 0 1024 1024">
	<title>user</title>
	<path class="path1" d="M848 1024h-672c-26.51 0-48-21.49-48-48 0-68.862 29.068-152.204 77.758-222.942 40.692-59.118 90.684-103.62 144.678-129.61-23.798-21.644-44.294-48.026-60.508-78.122-26-48.262-39.746-104.048-39.746-161.328 0-79.606 26.204-154.822 73.786-211.79 49.664-59.46 116.442-92.208 188.032-92.208s138.368 32.748 188.034 92.21c47.58 56.968 73.786 132.182 73.786 211.79 0 57.28-13.744 113.066-39.744 161.328-16.214 30.096-36.71 56.478-60.51 78.122 53.994 25.99 103.986 70.492 144.678 129.61 48.688 70.736 77.756 154.078 77.756 222.94 0 26.51-21.49 48-48 48zM230.074 928h563.852c-9.226-39.34-28.52-82.384-54.762-120.51-41.454-60.226-93.176-99.622-145.638-110.926-22.106-4.764-37.888-24.31-37.888-46.924v-34.292c0-17.26 9.266-33.19 24.27-41.722 59.478-33.832 97.912-108.266 97.912-189.626 0-114.692-74.384-208-165.818-208-91.432 0-165.818 93.308-165.818 208 0 81.36 38.434 155.792 97.914 189.626 15.002 8.534 24.268 24.462 24.268 41.722v34.292c0 22.614-15.784 42.16-37.888 46.924-52.462 11.304-104.184 50.7-145.64 110.926-26.246 38.126-45.536 81.17-54.764 120.51z" />
</symbol>
<symbol id="icon-user2" viewBox="0 0 1024 1024">
	<title>user2</title>
	<path class="path1" d="M256 320c0-141.385 114.615-256 256-256s256 114.615 256 256c0 141.385-114.615 256-256 256s-256-114.615-256-256zM768 640h-512c-141.384 0-256 114.618-256 256v64h1024v-64c0-141.382-114.616-256-256-256z" />
</symbol>
<symbol id="icon-busy" viewBox="0 0 1024 1024">
	<title>busy</title>
	<path class="path1" d="M728.992 512c137.754-87.334 231.008-255.208 231.008-448 0-21.676-1.192-43.034-3.478-64h-889.042c-2.29 20.968-3.48 42.326-3.48 64 0 192.792 93.254 360.666 231.006 448-137.752 87.334-231.006 255.208-231.006 448 0 21.676 1.19 43.034 3.478 64h889.042c2.288-20.966 3.478-42.324 3.478-64 0.002-192.792-93.252-360.666-231.006-448zM160 960c0-186.912 80.162-345.414 224-397.708v-100.586c-143.838-52.29-224-210.792-224-397.706v0h704c0 186.914-80.162 345.416-224 397.706v100.586c143.838 52.294 224 210.796 224 397.708h-704zM619.626 669.594c-71.654-40.644-75.608-93.368-75.626-125.366v-64.228c0-31.994 3.804-84.914 75.744-125.664 38.504-22.364 71.808-56.348 97.048-98.336h-409.582c25.266 42.032 58.612 76.042 97.166 98.406 71.654 40.644 75.606 93.366 75.626 125.366v64.228c0 31.992-3.804 84.914-75.744 125.664-72.622 42.18-126.738 125.684-143.090 226.336h501.67c-16.364-100.708-70.53-184.248-143.212-226.406z" />
</symbol>
<symbol id="icon-spinner" viewBox="0 0 1024 1024">
	<title>spinner</title>
	<path class="path1" d="M384 128c0-70.692 57.308-128 128-128s128 57.308 128 128c0 70.692-57.308 128-128 128s-128-57.308-128-128zM655.53 240.47c0-70.692 57.308-128 128-128s128 57.308 128 128c0 70.692-57.308 128-128 128s-128-57.308-128-128zM832 512c0-35.346 28.654-64 64-64s64 28.654 64 64c0 35.346-28.654 64-64 64s-64-28.654-64-64zM719.53 783.53c0-35.346 28.654-64 64-64s64 28.654 64 64c0 35.346-28.654 64-64 64s-64-28.654-64-64zM448.002 896c0 0 0 0 0 0 0-35.346 28.654-64 64-64s64 28.654 64 64c0 0 0 0 0 0 0 35.346-28.654 64-64 64s-64-28.654-64-64zM176.472 783.53c0 0 0 0 0 0 0-35.346 28.654-64 64-64s64 28.654 64 64c0 0 0 0 0 0 0 35.346-28.654 64-64 64s-64-28.654-64-64zM144.472 240.47c0 0 0 0 0 0 0-53.019 42.981-96 96-96s96 42.981 96 96c0 0 0 0 0 0 0 53.019-42.981 96-96 96s-96-42.981-96-96zM56 512c0-39.765 32.235-72 72-72s72 32.235 72 72c0 39.765-32.235 72-72 72s-72-32.235-72-72z" />
</symbol>
<symbol id="icon-spinner2" viewBox="0 0 1024 1024">
	<title>spinner2</title>
	<path class="path1" d="M1024 512c-1.278-66.862-15.784-133.516-42.576-194.462-26.704-61-65.462-116.258-113.042-161.92-47.552-45.696-103.944-81.82-164.984-105.652-61.004-23.924-126.596-35.352-191.398-33.966-64.81 1.282-129.332 15.374-188.334 41.356-59.048 25.896-112.542 63.47-156.734 109.576-44.224 46.082-79.16 100.708-102.186 159.798-23.114 59.062-34.128 122.52-32.746 185.27 1.286 62.76 14.964 125.148 40.134 182.206 25.088 57.1 61.476 108.828 106.11 151.548 44.61 42.754 97.472 76.504 154.614 98.72 57.118 22.304 118.446 32.902 179.142 31.526 60.708-1.29 120.962-14.554 176.076-38.914 55.15-24.282 105.116-59.48 146.366-102.644 41.282-43.14 73.844-94.236 95.254-149.43 13.034-33.458 21.88-68.4 26.542-103.798 1.246 0.072 2.498 0.12 3.762 0.12 35.346 0 64-28.652 64-64 0-1.796-0.094-3.572-0.238-5.332h0.238zM922.306 681.948c-23.472 53.202-57.484 101.4-99.178 141.18-41.67 39.81-91 71.186-144.244 91.79-53.228 20.678-110.29 30.452-166.884 29.082-56.604-1.298-112.596-13.736-163.82-36.474-51.25-22.666-97.684-55.49-135.994-95.712-38.338-40.198-68.528-87.764-88.322-139.058-19.87-51.284-29.228-106.214-27.864-160.756 1.302-54.552 13.328-108.412 35.254-157.69 21.858-49.3 53.498-93.97 92.246-130.81 38.73-36.868 84.53-65.87 133.874-84.856 49.338-19.060 102.136-28.006 154.626-26.644 52.5 1.306 104.228 12.918 151.562 34.034 47.352 21.050 90.256 51.502 125.624 88.782 35.396 37.258 63.21 81.294 81.39 128.688 18.248 47.392 26.782 98.058 25.424 148.496h0.238c-0.144 1.76-0.238 3.536-0.238 5.332 0 33.012 24.992 60.174 57.086 63.624-6.224 34.822-16.53 68.818-30.78 100.992z" />
</symbol>
<symbol id="icon-spinner3" viewBox="0 0 1024 1024">
	<title>spinner3</title>
	<path class="path1" d="M192 512c0-12.18 0.704-24.196 2.030-36.022l-184.98-60.104c-5.916 31.14-9.050 63.264-9.050 96.126 0 147.23 62.166 279.922 161.654 373.324l114.284-157.296c-52.124-56.926-83.938-132.758-83.938-216.028zM832 512c0 83.268-31.812 159.102-83.938 216.028l114.284 157.296c99.488-93.402 161.654-226.094 161.654-373.324 0-32.862-3.132-64.986-9.048-96.126l-184.98 60.104c1.324 11.828 2.028 23.842 2.028 36.022zM576 198.408c91.934 18.662 169.544 76.742 214.45 155.826l184.978-60.102c-73.196-155.42-222.24-268.060-399.428-290.156v194.432zM233.55 354.232c44.906-79.084 122.516-137.164 214.45-155.826v-194.43c-177.188 22.096-326.23 134.736-399.426 290.154l184.976 60.102zM644.556 803.328c-40.39 18.408-85.272 28.672-132.556 28.672s-92.166-10.264-132.554-28.67l-114.292 157.31c73.206 40.366 157.336 63.36 246.846 63.36s173.64-22.994 246.848-63.36l-114.292-157.312z" />
</symbol>
<symbol id="icon-spinner4" viewBox="0 0 1024 1024">
	<title>spinner4</title>
	<path class="path1" d="M512 0c-282.77 0-512 229.23-512 512s229.23 512 512 512 512-229.23 512-512-229.23-512-512-512zM512 256c141.384 0 256 114.616 256 256s-114.616 256-256 256-256-114.616-256-256 114.616-256 256-256zM817.47 817.47c-81.594 81.594-190.080 126.53-305.47 126.53-115.392 0-223.876-44.936-305.47-126.53s-126.53-190.078-126.53-305.47c0-115.39 44.936-223.876 126.53-305.47l67.882 67.882c0 0 0 0 0 0-131.006 131.006-131.006 344.17 0 475.176 63.462 63.462 147.838 98.412 237.588 98.412 89.748 0 174.124-34.95 237.588-98.412 131.006-131.006 131.006-344.168 0-475.176l67.882-67.882c81.594 81.594 126.53 190.080 126.53 305.47 0 115.392-44.936 223.876-126.53 305.47z" />
</symbol>
<symbol id="icon-spinner5" viewBox="0 0 1024 1024">
	<title>spinner5</title>
	<path class="path1" d="M512 0c-278.748 0-505.458 222.762-511.848 499.974 5.92-241.864 189.832-435.974 415.848-435.974 229.75 0 416 200.576 416 448 0 53.020 42.98 96 96 96s96-42.98 96-96c0-282.77-229.23-512-512-512zM512 1024c278.748 0 505.458-222.762 511.848-499.974-5.92 241.864-189.832 435.974-415.848 435.974-229.75 0-416-200.576-416-448 0-53.020-42.98-96-96-96s-96 42.98-96 96c0 282.77 229.23 512 512 512z" />
</symbol>
<symbol id="icon-wrench" viewBox="0 0 1024 1024">
	<title>wrench</title>
	<path class="path1" d="M1002.934 817.876l-460.552-394.76c21.448-40.298 33.618-86.282 33.618-135.116 0-159.058-128.942-288-288-288-29.094 0-57.172 4.332-83.646 12.354l166.39 166.39c24.89 24.89 24.89 65.62 0 90.51l-101.49 101.49c-24.89 24.89-65.62 24.89-90.51 0l-166.39-166.39c-8.022 26.474-12.354 54.552-12.354 83.646 0 159.058 128.942 288 288 288 48.834 0 94.818-12.17 135.116-33.62l394.76 460.552c22.908 26.724 62.016 28.226 86.904 3.338l101.492-101.492c24.888-24.888 23.386-63.994-3.338-86.902z" />
</symbol>
<symbol id="icon-cogs" viewBox="0 0 1024 1024">
	<title>cogs</title>
	<path class="path1" d="M363.722 722.052l41.298-57.816-45.254-45.256-57.818 41.296c-10.722-5.994-22.204-10.774-34.266-14.192l-11.682-70.084h-64l-11.68 70.086c-12.062 3.418-23.544 8.198-34.266 14.192l-57.818-41.298-45.256 45.256 41.298 57.816c-5.994 10.72-10.774 22.206-14.192 34.266l-70.086 11.682v64l70.086 11.682c3.418 12.060 8.198 23.544 14.192 34.266l-41.298 57.816 45.254 45.256 57.818-41.296c10.722 5.994 22.204 10.774 34.266 14.192l11.682 70.084h64l11.68-70.086c12.062-3.418 23.544-8.198 34.266-14.192l57.818 41.296 45.254-45.256-41.298-57.816c5.994-10.72 10.774-22.206 14.192-34.266l70.088-11.68v-64l-70.086-11.682c-3.418-12.060-8.198-23.544-14.192-34.266zM224 864c-35.348 0-64-28.654-64-64s28.652-64 64-64 64 28.654 64 64-28.652 64-64 64zM1024 384v-64l-67.382-12.25c-1.242-8.046-2.832-15.978-4.724-23.79l57.558-37.1-24.492-59.128-66.944 14.468c-4.214-6.91-8.726-13.62-13.492-20.13l39.006-56.342-45.256-45.254-56.342 39.006c-6.512-4.766-13.22-9.276-20.13-13.494l14.468-66.944-59.128-24.494-37.1 57.558c-7.812-1.892-15.744-3.482-23.79-4.724l-12.252-67.382h-64l-12.252 67.382c-8.046 1.242-15.976 2.832-23.79 4.724l-37.098-57.558-59.128 24.492 14.468 66.944c-6.91 4.216-13.62 8.728-20.13 13.494l-56.342-39.006-45.254 45.254 39.006 56.342c-4.766 6.51-9.278 13.22-13.494 20.13l-66.944-14.468-24.492 59.128 57.558 37.1c-1.892 7.812-3.482 15.742-4.724 23.79l-67.384 12.252v64l67.382 12.25c1.242 8.046 2.832 15.978 4.724 23.79l-57.558 37.1 24.492 59.128 66.944-14.468c4.216 6.91 8.728 13.618 13.494 20.13l-39.006 56.342 45.254 45.256 56.342-39.006c6.51 4.766 13.22 9.276 20.13 13.492l-14.468 66.944 59.128 24.492 37.102-57.558c7.81 1.892 15.742 3.482 23.788 4.724l12.252 67.384h64l12.252-67.382c8.044-1.242 15.976-2.832 23.79-4.724l37.1 57.558 59.128-24.492-14.468-66.944c6.91-4.216 13.62-8.726 20.13-13.492l56.342 39.006 45.256-45.256-39.006-56.342c4.766-6.512 9.276-13.22 13.492-20.13l66.944 14.468 24.492-59.13-57.558-37.1c1.892-7.812 3.482-15.742 4.724-23.79l67.382-12.25zM672 491.2c-76.878 0-139.2-62.322-139.2-139.2s62.32-139.2 139.2-139.2 139.2 62.322 139.2 139.2c0 76.878-62.32 139.2-139.2 139.2z" />
</symbol>
<symbol id="icon-cog" viewBox="0 0 1024 1024">
	<title>cog</title>
	<path class="path1" d="M1024 608.094v-192.188l-146.774-24.462c-5.958-18.132-13.222-35.668-21.694-52.5l86.454-121.034-135.896-135.898-120.826 86.304c-16.91-8.554-34.538-15.888-52.768-21.902l-24.402-146.414h-192.188l-24.402 146.416c-18.23 6.014-35.858 13.348-52.766 21.902l-120.828-86.304-135.898 135.898 86.454 121.036c-8.47 16.83-15.734 34.366-21.692 52.498l-146.774 24.46v192.188l147.118 24.52c5.96 17.968 13.21 35.348 21.642 52.030l-86.748 121.448 135.898 135.896 121.654-86.894c16.602 8.35 33.89 15.528 51.764 21.434l24.578 147.472h192.188l24.578-147.474c17.874-5.906 35.162-13.084 51.766-21.432l121.652 86.892 135.896-135.896-86.744-121.446c8.432-16.682 15.678-34.062 21.64-52.032l147.118-24.518zM512 640c-70.692 0-128-57.306-128-128 0-70.692 57.308-128 128-128 70.694 0 128 57.308 128 128 0 70.694-57.306 128-128 128z" />
</symbol>
<symbol id="icon-remove" viewBox="0 0 1024 1024">
	<title>remove</title>
	<path class="path1" d="M192 1024h640l64-704h-768zM640 128v-128h-256v128h-320v192l64-64h768l64 64v-192h-320zM576 128h-128v-64h128v64z" />
</symbol>
<symbol id="icon-remove2" viewBox="0 0 1024 1024">
	<title>remove2</title>
	<path class="path1" d="M800 128h-576c-53.020 0-96 42.98-96 96v32h768v-32c0-53.020-42.98-96-96-96zM632.32 64l14.116 101h-268.872l14.114-101h240.642zM640 0h-256c-26.4 0-50.99 21.392-54.642 47.538l-18.714 133.924c-3.654 26.146 14.956 47.538 41.356 47.538h320c26.4 0 45.010-21.392 41.358-47.538l-18.714-133.924c-3.654-26.146-28.244-47.538-54.644-47.538v0zM816 320h-608c-35.2 0-61.392 28.682-58.206 63.738l52.412 576.526c3.186 35.054 34.594 63.736 69.794 63.736h480c35.2 0 66.608-28.682 69.794-63.736l52.41-576.526c3.188-35.056-23.004-63.738-58.204-63.738zM384 896h-96l-32-448h128v448zM576 896h-128v-448h128v448zM736 896h-96v-448h128l-32 448z" />
</symbol>
<symbol id="icon-download2" viewBox="0 0 1024 1024">
	<title>download2</title>
	<path class="path1" d="M896 512h-160l-224 224-224-224h-160l-128 256v64h1024v-64l-128-256zM0 896h1024v64h-1024v-64zM576 320v-256h-128v256h-224l288 288 288-288h-224z" />
</symbol>
<symbol id="icon-upload2" viewBox="0 0 1024 1024">
	<title>upload2</title>
	<path class="path1" d="M0 896h1024v64h-1024zM1024 768v64h-1024v-64l128-256h256v128h256v-128h256zM224 320l288-288 288 288h-224v256h-128v-256z" />
</symbol>
<symbol id="icon-download3" viewBox="0 0 1024 1024">
	<title>download3</title>
	<path class="path1" d="M736 448l-256 256-256-256h160v-384h192v384zM480 704h-480v256h960v-256h-480zM896 832h-128v-64h128v64z" />
</symbol>
<symbol id="icon-upload3" viewBox="0 0 1024 1024">
	<title>upload3</title>
	<path class="path1" d="M480 704h-480v256h960v-256h-480zM896 832h-128v-64h128v64zM224 320l256-256 256 256h-160v320h-192v-320z" />
</symbol>
<symbol id="icon-scissors" viewBox="0 0 1024 1024">
	<title>scissors</title>
	<path class="path1" d="M890.774 709.154c-45.654-45.556-103.728-69.072-157.946-69.072h-29.112l-63.904-64.008 255.62-256.038c63.904-64.010 63.904-192.028 0-256.038l-383.43 384.056-383.432-384.054c-63.904 64.008-63.904 192.028 0 256.038l255.622 256.034-63.906 64.008h-29.114c-54.22 0-112.292 23.518-157.948 69.076-81.622 81.442-92.65 202.484-24.63 270.35 29.97 29.902 70.288 44.494 112.996 44.494 54.216 0 112.29-23.514 157.946-69.072 53.584-53.464 76.742-124 67.084-185.348l65.384-65.488 65.376 65.488c-9.656 61.348 13.506 131.882 67.084 185.348 45.662 45.558 103.732 69.072 157.948 69.072 42.708 0 83.024-14.592 112.994-44.496 68.020-67.866 56.988-188.908-24.632-270.35zM353.024 845.538c-7.698 17.882-19.010 34.346-33.626 48.926-14.636 14.604-31.172 25.918-49.148 33.624-16.132 6.916-32.96 10.568-48.662 10.568-15.146 0-36.612-3.402-52.862-19.612-16.136-16.104-19.52-37.318-19.52-52.288 0-15.542 3.642-32.21 10.526-48.212 7.7-17.884 19.014-34.346 33.626-48.926 14.634-14.606 31.172-25.914 49.15-33.624 16.134-6.914 32.96-10.568 48.664-10.568 15.146 0 36.612 3.4 52.858 19.614 16.134 16.098 19.522 37.316 19.522 52.284 0.002 15.542-3.638 32.216-10.528 48.214zM512.004 666.596c-49.914 0-90.376-40.532-90.376-90.526 0-49.992 40.462-90.52 90.376-90.52s90.372 40.528 90.372 90.52c0 49.998-40.46 90.526-90.372 90.526zM855.272 919.042c-16.248 16.208-37.712 19.612-52.86 19.612-15.704 0-32.53-3.652-48.666-10.568-17.972-7.706-34.508-19.020-49.142-33.624-14.614-14.58-25.926-31.042-33.626-48.926-6.886-15.998-10.526-32.672-10.526-48.212 0-14.966 3.384-36.188 19.52-52.286 16.246-16.208 37.712-19.614 52.86-19.614 15.7 0 32.53 3.654 48.66 10.568 17.978 7.708 34.516 19.018 49.15 33.624 14.61 14.58 25.924 31.042 33.626 48.926 6.884 15.998 10.526 32.67 10.526 48.212-0.002 14.97-3.39 36.186-19.522 52.288z" />
</symbol>
</defs>
</svg>
