<?xml version="1.0" encoding="utf-8"?>
<!-- Generated by IcoMoon.io -->
<!DOCTYPE svg PUBLIC "-//W3C//DTD SVG 1.1//EN" "http://www.w3.org/Graphics/SVG/1.1/DTD/svg11.dtd">
<svg version="1.1" xmlns="http://www.w3.org/2000/svg" xmlns:xlink="http://www.w3.org/1999/xlink" width="35" height="35" viewBox="0 0 35 35">
<path d="M17.5 3.281c-7.853 0-14.219 6.366-14.219 14.219s6.366 14.219 14.219 14.219 14.219-6.366 14.219-14.219-6.366-14.219-14.219-14.219zM17.5 29.531c-6.645 0-12.031-5.387-12.031-12.031s5.387-12.031 12.031-12.031 12.031 5.387 12.031 12.031-5.387 12.031-12.031 12.031zM17.783 15.191c-0.489 0-0.969 0.117-1.436 0.351l0.334-1.864h3.962v-1.965h-5.554l-1.077 5.708 1.703 0.248c0.479-0.536 1.019-0.803 1.623-0.803 0.483 0 0.876 0.168 1.178 0.505s0.453 0.842 0.453 1.516c0 0.719-0.153 1.256-0.456 1.613-0.304 0.358-0.676 0.535-1.116 0.535-0.384 0-0.723-0.138-1.017-0.415-0.295-0.276-0.471-0.651-0.532-1.123l-2.092 0.217c0.125 0.918 0.505 1.647 1.144 2.191 0.639 0.543 1.463 0.814 2.476 0.814 1.267 0 2.255-0.482 2.97-1.451 0.524-0.708 0.784-1.514 0.784-2.417 0-1.082-0.324-1.962-0.972-2.641-0.651-0.679-1.442-1.018-2.373-1.018z" fill="#000000"></path>
</svg>
