<?xml version="1.0" encoding="utf-8"?>
<!-- Generated by IcoMoon.io -->
<!DOCTYPE svg PUBLIC "-//W3C//DTD SVG 1.1//EN" "http://www.w3.org/Graphics/SVG/1.1/DTD/svg11.dtd">
<svg version="1.1" xmlns="http://www.w3.org/2000/svg" xmlns:xlink="http://www.w3.org/1999/xlink" width="35" height="35" viewBox="0 0 35 35">
<path d="M17.5 3.281c-7.853 0-14.219 6.366-14.219 14.219s6.366 14.219 14.219 14.219 14.219-6.366 14.219-14.219-6.366-14.219-14.219-14.219zM17.5 29.531c-6.645 0-12.031-5.387-12.031-12.031s5.387-12.031 12.031-12.031 12.031 5.387 12.031 12.031-5.387 12.031-12.031 12.031zM13.939 14.537h4.781c-0.987 1.242-1.775 2.652-2.365 4.23-0.591 1.576-0.903 3.124-0.937 4.641h2.026c-0.005-0.968 0.153-2.066 0.475-3.294 0.32-1.229 0.789-2.39 1.4-3.483 0.613-1.092 1.214-1.929 1.808-2.512v-1.529h-7.186v1.948z" fill="#000000"></path>
</svg>
