<?xml version="1.0" encoding="utf-8"?>
<!-- Generated by IcoMoon.io -->
<!DOCTYPE svg PUBLIC "-//W3C//DTD SVG 1.1//EN" "http://www.w3.org/Graphics/SVG/1.1/DTD/svg11.dtd">
<svg version="1.1" xmlns="http://www.w3.org/2000/svg" xmlns:xlink="http://www.w3.org/1999/xlink" width="35" height="35" viewBox="0 0 35 35">
<path d="M17.5 3.281c-7.853 0-14.219 6.366-14.219 14.219s6.366 14.219 14.219 14.219 14.219-6.366 14.219-14.219-6.366-14.219-14.219-14.219zM17.5 29.531c-6.645 0-12.031-5.387-12.031-12.031s5.387-12.031 12.031-12.031 12.031 5.387 12.031 12.031-5.387 12.031-12.031 12.031zM18.069 16.062c-0.778 0-1.427 0.308-1.951 0.928 0.080-1.259 0.272-2.087 0.579-2.484s0.68-0.596 1.124-0.596c0.334 0 0.605 0.1 0.814 0.299s0.339 0.506 0.388 0.924l2.033-0.224c-0.15-0.886-0.498-1.561-1.043-2.027-0.546-0.465-1.235-0.698-2.067-0.698-1.187 0-2.151 0.443-2.894 1.331-0.743 0.887-1.113 2.335-1.113 4.344 0 1.959 0.355 3.369 1.070 4.228 0.712 0.86 1.622 1.291 2.73 1.291 1.032 0 1.878-0.34 2.535-1.018 0.66-0.679 0.988-1.58 0.988-2.704 0-1.059-0.314-1.922-0.938-2.59-0.625-0.67-1.376-1.004-2.253-1.004zM18.814 21.175c-0.258 0.304-0.583 0.456-0.971 0.456-0.402 0-0.761-0.186-1.075-0.558s-0.47-0.9-0.47-1.585c0-0.619 0.139-1.088 0.418-1.405s0.62-0.477 1.024-0.477c0.418 0 0.767 0.166 1.046 0.499s0.419 0.855 0.419 1.571c0 0.696-0.13 1.195-0.389 1.5z" fill="#000000"></path>
</svg>
