<?xml version="1.0" encoding="utf-8"?>
<!-- Generated by IcoMoon.io -->
<!DOCTYPE svg PUBLIC "-//W3C//DTD SVG 1.1//EN" "http://www.w3.org/Graphics/SVG/1.1/DTD/svg11.dtd">
<svg version="1.1" xmlns="http://www.w3.org/2000/svg" xmlns:xlink="http://www.w3.org/1999/xlink" width="35" height="35" viewBox="0 0 35 35">
<path d="M17.5 3.281c-7.853 0-14.219 6.366-14.219 14.219s6.366 14.219 14.219 14.219 14.219-6.366 14.219-14.219-6.366-14.219-14.219-14.219zM22.249 22.341v2.512h-9.467c0.102-0.948 0.409-1.846 0.922-2.696 0.512-0.849 1.524-1.976 3.034-3.38 1.215-1.134 1.961-1.903 2.237-2.307 0.372-0.558 0.558-1.109 0.558-1.654 0-0.603-0.161-1.066-0.482-1.39s-0.766-0.486-1.333-0.486c-0.56 0-1.006 0.171-1.338 0.511s-0.523 0.905-0.572 1.694l-2.7-0.27c0.16-1.486 0.662-2.554 1.507-3.203 0.844-0.648 1.902-0.971 3.17-0.971 1.389 0 2.481 0.375 3.275 1.124 0.794 0.75 1.191 1.682 1.191 2.797 0 0.634-0.114 1.238-0.341 1.811s-0.587 1.175-1.081 1.801c-0.327 0.416-0.918 1.016-1.773 1.798-0.854 0.781-1.396 1.299-1.623 1.555-0.227 0.257-0.411 0.506-0.552 0.75h5.37z" fill="#000000"></path>
</svg>
