<?xml version="1.0" encoding="utf-8"?>
<!-- Generated by IcoMoon.io -->
<!DOCTYPE svg PUBLIC "-//W3C//DTD SVG 1.1//EN" "http://www.w3.org/Graphics/SVG/1.1/DTD/svg11.dtd">
<svg version="1.1" xmlns="http://www.w3.org/2000/svg" xmlns:xlink="http://www.w3.org/1999/xlink" width="35" height="35" viewBox="0 0 35 35">
<path d="M17.5 3.281c-7.853 0-14.219 6.366-14.219 14.219s6.366 14.219 14.219 14.219 14.219-6.366 14.219-14.219-6.366-14.219-14.219-14.219zM21.378 22.619c-0.918 1.244-2.191 1.865-3.819 1.865-1.302 0-2.363-0.349-3.184-1.049-0.82-0.701-1.311-1.643-1.472-2.824l2.7-0.28c0.077 0.611 0.304 1.094 0.681 1.448 0.377 0.357 0.812 0.534 1.304 0.534 0.563 0 1.038-0.229 1.43-0.686 0.388-0.457 0.584-1.147 0.584-2.070 0-0.864-0.195-1.513-0.582-1.945-0.388-0.432-0.895-0.649-1.518-0.649-0.777 0-1.474 0.341-2.090 1.026l-2.184-0.316 1.385-7.34h7.143v2.529h-5.095l-0.434 2.398c0.605-0.299 1.222-0.45 1.852-0.45 1.202 0 2.22 0.436 3.057 1.308 0.836 0.872 1.253 2.004 1.253 3.394-0.001 1.162-0.338 2.197-1.011 3.107z" fill="#000000"></path>
</svg>
