<?xml version="1.0" encoding="utf-8"?>
<!-- Generated by IcoMoon.io -->
<!DOCTYPE svg PUBLIC "-//W3C//DTD SVG 1.1//EN" "http://www.w3.org/Graphics/SVG/1.1/DTD/svg11.dtd">
<svg version="1.1" xmlns="http://www.w3.org/2000/svg" xmlns:xlink="http://www.w3.org/1999/xlink" width="35" height="35" viewBox="0 0 35 35">
<path d="M17.5 3.281c-7.853 0-14.219 6.366-14.219 14.219s6.366 14.219 14.219 14.219 14.219-6.366 14.219-14.219-6.366-14.219-14.219-14.219zM20.776 23.359c-0.903 0.872-2.028 1.306-3.375 1.306-1.275 0-2.333-0.366-3.172-1.099-0.841-0.733-1.328-1.69-1.462-2.873l2.615-0.316c0.083 0.664 0.307 1.171 0.674 1.524 0.364 0.351 0.807 0.527 1.327 0.527 0.558 0 1.027-0.212 1.41-0.637 0.381-0.423 0.571-0.994 0.571-1.713 0-0.679-0.183-1.22-0.548-1.618-0.366-0.398-0.812-0.596-1.338-0.596-0.347 0-0.76 0.068-1.242 0.201l0.298-2.184c0.731 0.020 1.288-0.139 1.672-0.475s0.575-0.782 0.575-1.339c0-0.474-0.14-0.85-0.421-1.132-0.282-0.281-0.655-0.422-1.121-0.422-0.46 0-0.852 0.16-1.178 0.479-0.326 0.32-0.524 0.788-0.595 1.401l-2.495-0.422c0.173-0.855 0.434-1.539 0.784-2.051s0.837-0.913 1.461-1.206 1.326-0.439 2.101-0.439c1.327 0 2.391 0.423 3.192 1.27 0.661 0.692 0.99 1.474 0.99 2.346 0 1.237-0.677 2.225-2.032 2.962 0.808 0.173 1.455 0.561 1.938 1.163 0.485 0.603 0.726 1.329 0.726 2.181 0.001 1.238-0.451 2.291-1.354 3.162z" fill="#000000"></path>
</svg>
