<?xml version="1.0" encoding="utf-8"?>
<!-- Generated by IcoMoon.io -->
<!DOCTYPE svg PUBLIC "-//W3C//DTD SVG 1.1//EN" "http://www.w3.org/Graphics/SVG/1.1/DTD/svg11.dtd">
<svg version="1.1" xmlns="http://www.w3.org/2000/svg" xmlns:xlink="http://www.w3.org/1999/xlink" width="35" height="35" viewBox="0 0 35 35">
<path d="M17.423 12.516c-0.502 0-0.919 0.197-1.25 0.59-0.331 0.394-0.497 1.038-0.497 1.934 0 0.908 0.18 1.574 0.54 1.999 0.36 0.427 0.81 0.639 1.35 0.639 0.522 0 0.96-0.206 1.317-0.615s0.535-1.011 0.535-1.804c0-0.87-0.201-1.544-0.603-2.025s-0.866-0.719-1.392-0.719zM17.5 3.281c-7.853 0-14.219 6.366-14.219 14.219s6.366 14.219 14.219 14.219 14.219-6.366 14.219-14.219-6.366-14.219-14.219-14.219zM21.014 22.972c-0.953 1.142-2.194 1.712-3.722 1.712-1.101 0-1.99-0.295-2.668-0.883-0.678-0.59-1.113-1.469-1.305-2.639l2.615-0.29c0.065 0.534 0.231 0.93 0.499 1.187 0.267 0.257 0.621 0.386 1.063 0.386 0.556 0 1.028-0.256 1.419-0.771 0.388-0.515 0.638-1.579 0.747-3.197-0.68 0.789-1.53 1.182-2.551 1.182-1.11 0-2.068-0.428-2.873-1.282-0.805-0.855-1.207-1.968-1.207-3.338 0-1.427 0.425-2.578 1.274-3.452 0.85-0.874 1.933-1.31 3.247-1.31 1.43 0 2.603 0.553 3.521 1.659 0.917 1.106 1.375 2.926 1.375 5.458-0.003 2.578-0.48 4.436-1.434 5.578z" fill="#000000"></path>
</svg>
