<?xml version="1.0" encoding="utf-8"?>
<!-- Generated by IcoMoon.io -->
<!DOCTYPE svg PUBLIC "-//W3C//DTD SVG 1.1//EN" "http://www.w3.org/Graphics/SVG/1.1/DTD/svg11.dtd">
<svg version="1.1" xmlns="http://www.w3.org/2000/svg" xmlns:xlink="http://www.w3.org/1999/xlink" width="35" height="35" viewBox="0 0 35 35">
<path d="M17.568 17.54c-0.521 0-0.959 0.203-1.318 0.61-0.36 0.407-0.539 1.007-0.539 1.801 0 0.878 0.202 1.555 0.607 2.032 0.404 0.478 0.865 0.716 1.386 0.716 0.5 0 0.918-0.197 1.251-0.587s0.5-1.030 0.5-1.922c0-0.917-0.179-1.587-0.538-2.014s-0.809-0.638-1.349-0.638zM17.5 3.281c-7.853 0-14.219 6.366-14.219 14.219s6.366 14.219 14.219 14.219 14.219-6.366 14.219-14.219-6.366-14.219-14.219-14.219zM20.833 23.633c-0.845 0.872-1.934 1.306-3.259 1.306-1.424 0-2.594-0.552-3.511-1.658-0.918-1.106-1.376-2.917-1.376-5.436 0-2.582 0.479-4.444 1.435-5.585 0.955-1.141 2.196-1.711 3.723-1.711 1.071 0 1.958 0.301 2.66 0.902 0.703 0.603 1.151 1.475 1.343 2.621l-2.615 0.288c-0.065-0.536-0.232-0.933-0.501-1.188-0.27-0.256-0.62-0.384-1.051-0.384-0.572 0-1.057 0.255-1.451 0.767-0.395 0.511-0.644 1.575-0.747 3.194 0.673-0.794 1.51-1.191 2.512-1.191 1.129 0 2.096 0.429 2.901 1.286s1.207 1.965 1.207 3.323c0 1.442-0.423 2.597-1.27 3.466z" fill="#000000"></path>
</svg>
