<?xml version="1.0" encoding="utf-8"?>
<!-- Generated by IcoMoon.io -->
<!DOCTYPE svg PUBLIC "-//W3C//DTD SVG 1.1//EN" "http://www.w3.org/Graphics/SVG/1.1/DTD/svg11.dtd">
<svg version="1.1" xmlns="http://www.w3.org/2000/svg" xmlns:xlink="http://www.w3.org/1999/xlink" width="35" height="35" viewBox="0 0 35 35">
<path d="M17.5 3.281c-7.853 0-14.219 6.366-14.219 14.219s6.366 14.219 14.219 14.219 14.219-6.366 14.219-14.219-6.366-14.219-14.219-14.219zM17.5 29.531c-6.645 0-12.031-5.387-12.031-12.031s5.387-12.031 12.031-12.031 12.031 5.387 12.031 12.031-5.387 12.031-12.031 12.031zM16.218 13.9c-0.644 0.501-1.24 0.842-1.788 1.022v1.905c1.042-0.343 1.948-0.874 2.717-1.591v7.778h2.239v-10.938h-1.844c-0.238 0.669-0.68 1.322-1.323 1.824z" fill="#000000"></path>
</svg>
