<?xml version="1.0" encoding="utf-8"?>
<!-- Generated by IcoMoon.io -->
<!DOCTYPE svg PUBLIC "-//W3C//DTD SVG 1.1//EN" "http://www.w3.org/Graphics/SVG/1.1/DTD/svg11.dtd">
<svg version="1.1" xmlns="http://www.w3.org/2000/svg" xmlns:xlink="http://www.w3.org/1999/xlink" width="35" height="35" viewBox="0 0 35 35">
<path d="M17.5 3.281c-7.853 0-14.219 6.366-14.219 14.219s6.366 14.219 14.219 14.219 14.219-6.366 14.219-14.219-6.366-14.219-14.219-14.219zM17.5 29.531c-6.645 0-12.031-5.387-12.031-12.031s5.387-12.031 12.031-12.031 12.031 5.387 12.031 12.031-5.387 12.031-12.031 12.031zM17.493 11.744c-1.064 0-1.891 0.374-2.485 1.122-0.719 0.908-1.077 2.393-1.077 4.456 0 2.103 0.327 3.566 0.98 4.386s1.515 1.229 2.582 1.229c1.062 0 1.891-0.374 2.484-1.121 0.719-0.907 1.078-2.397 1.078-4.471 0-2.078-0.357-3.567-1.071-4.465-0.598-0.757-1.43-1.136-2.492-1.136zM18.643 20.080c-0.112 0.419-0.266 0.709-0.466 0.872-0.201 0.162-0.43 0.243-0.684 0.243-0.256 0-0.482-0.080-0.68-0.24s-0.362-0.479-0.492-0.96-0.195-1.365-0.195-2.65 0.072-2.201 0.218-2.743c0.109-0.419 0.265-0.709 0.466-0.871 0.2-0.162 0.428-0.243 0.684-0.243 0.254 0 0.48 0.081 0.679 0.243 0.198 0.162 0.361 0.483 0.491 0.965s0.197 1.365 0.197 2.65-0.072 2.196-0.218 2.734z" fill="#000000"></path>
</svg>
