<?xml version="1.0" encoding="utf-8"?>
<!-- Generated by IcoMoon.io -->
<!DOCTYPE svg PUBLIC "-//W3C//DTD SVG 1.1//EN" "http://www.w3.org/Graphics/SVG/1.1/DTD/svg11.dtd">
<svg version="1.1" xmlns="http://www.w3.org/2000/svg" xmlns:xlink="http://www.w3.org/1999/xlink" width="35" height="35" viewBox="0 0 35 35">
<path d="M17.5 3.281c-7.853 0-14.219 6.366-14.219 14.219s6.366 14.219 14.219 14.219 14.219-6.366 14.219-14.219-6.366-14.219-14.219-14.219zM17.5 29.531c-6.645 0-12.031-5.387-12.031-12.031s5.387-12.031 12.031-12.031 12.031 5.387 12.031 12.031-5.387 12.031-12.031 12.031zM17.072 12.4c-1.023 0-1.864 0.34-2.525 1.020-0.661 0.68-0.99 1.577-0.99 2.688 0 1.067 0.313 1.934 0.937 2.599 0.626 0.665 1.37 0.999 2.232 0.999 0.793 0 1.453-0.307 1.982-0.921-0.084 1.257-0.279 2.085-0.582 2.484-0.304 0.398-0.672 0.598-1.106 0.598-0.343 0-0.619-0.101-0.829-0.3s-0.339-0.508-0.388-0.922l-2.032 0.224c0.15 0.911 0.488 1.596 1.016 2.053 0.528 0.458 1.222 0.688 2.078 0.688 1.192 0 2.158-0.444 2.901-1.333 0.743-0.888 1.115-2.335 1.115-4.34 0-1.971-0.357-3.386-1.070-4.247-0.713-0.86-1.626-1.291-2.739-1.291zM18.107 17.689c-0.276 0.319-0.615 0.479-1.018 0.479-0.418 0-0.767-0.165-1.046-0.498s-0.418-0.852-0.418-1.56c0-0.698 0.128-1.201 0.384-1.507 0.257-0.306 0.579-0.459 0.968-0.459 0.408 0 0.767 0.187 1.078 0.561 0.311 0.374 0.467 0.9 0.467 1.578 0 0.618-0.138 1.086-0.416 1.405z" fill="#000000"></path>
</svg>
