<?xml version="1.0" encoding="utf-8"?>
<!-- Generated by IcoMoon.io -->
<!DOCTYPE svg PUBLIC "-//W3C//DTD SVG 1.1//EN" "http://www.w3.org/Graphics/SVG/1.1/DTD/svg11.dtd">
<svg version="1.1" xmlns="http://www.w3.org/2000/svg" xmlns:xlink="http://www.w3.org/1999/xlink" width="35" height="35" viewBox="0 0 35 35">
<path d="M18.307 12.554c-0.255-0.208-0.547-0.313-0.876-0.313s-0.622 0.105-0.88 0.313c-0.258 0.209-0.458 0.582-0.6 1.12-0.187 0.699-0.28 1.875-0.28 3.528s0.083 2.79 0.25 3.408 0.38 1.029 0.633 1.236c0.255 0.206 0.547 0.306 0.876 0.306s0.621-0.104 0.88-0.312 0.457-0.582 0.6-1.12c0.186-0.692 0.28-1.865 0.28-3.519s-0.083-2.79-0.252-3.408c-0.167-0.618-0.377-1.031-0.632-1.24zM17.5 3.281c-7.853 0-14.219 6.366-14.219 14.219s6.366 14.219 14.219 14.219 14.219-6.366 14.219-14.219-6.366-14.219-14.219-14.219zM20.626 22.95c-0.763 0.961-1.829 1.442-3.195 1.442-1.373 0-2.48-0.526-3.32-1.58s-1.26-2.933-1.26-5.637c0-2.653 0.462-4.563 1.386-5.729 0.763-0.961 1.829-1.442 3.195-1.442s2.435 0.487 3.205 1.461c0.917 1.154 1.376 3.066 1.376 5.739-0.001 2.665-0.464 4.582-1.387 5.747z" fill="#000000"></path>
</svg>
