<?xml version="1.0" encoding="utf-8"?>
<!-- Generated by IcoMoon.io -->
<!DOCTYPE svg PUBLIC "-//W3C//DTD SVG 1.1//EN" "http://www.w3.org/Graphics/SVG/1.1/DTD/svg11.dtd">
<svg version="1.1" xmlns="http://www.w3.org/2000/svg" xmlns:xlink="http://www.w3.org/1999/xlink" width="35" height="35" viewBox="0 0 35 35">
<path d="M17.734 18.224c-0.661 0-1.152 0.229-1.475 0.688-0.324 0.458-0.485 0.955-0.485 1.491 0 0.75 0.19 1.334 0.571 1.754s0.856 0.63 1.427 0.63c0.558 0 1.019-0.203 1.385-0.607s0.548-0.985 0.548-1.749c0-0.665-0.186-1.2-0.558-1.603-0.372-0.402-0.843-0.604-1.413-0.604zM17.696 16.087c0.511 0 0.919-0.153 1.225-0.457 0.305-0.305 0.459-0.727 0.459-1.267 0-0.508-0.152-0.913-0.455-1.218s-0.703-0.457-1.201-0.457c-0.517 0-0.929 0.154-1.235 0.462-0.306 0.308-0.459 0.716-0.459 1.224 0 0.539 0.152 0.96 0.454 1.262 0.304 0.301 0.708 0.452 1.212 0.452zM17.5 3.281c-7.853 0-14.219 6.366-14.219 14.219s6.366 14.219 14.219 14.219 14.219-6.366 14.219-14.219-6.366-14.219-14.219-14.219zM21.126 23.733c-0.83 0.816-1.934 1.224-3.31 1.224-1.282 0-2.347-0.338-3.2-1.013-1.005-0.797-1.508-1.889-1.508-3.277 0-0.763 0.189-1.466 0.569-2.104 0.378-0.639 0.976-1.132 1.79-1.48-0.699-0.294-1.207-0.699-1.524-1.214-0.318-0.515-0.477-1.078-0.477-1.693 0-1.049 0.366-1.915 1.1-2.6 0.734-0.684 1.777-1.026 3.129-1.026 1.34 0 2.38 0.342 3.119 1.026 0.742 0.685 1.111 1.551 1.111 2.6 0 0.653-0.17 1.233-0.51 1.741-0.341 0.508-0.818 0.897-1.434 1.165 0.78 0.315 1.373 0.774 1.778 1.378s0.609 1.3 0.609 2.090c0 1.307-0.416 2.367-1.245 3.183z" fill="#000000"></path>
</svg>
