<?xml version="1.0" encoding="utf-8"?>
<!-- Generated by IcoMoon.io -->
<!DOCTYPE svg PUBLIC "-//W3C//DTD SVG 1.1//EN" "http://www.w3.org/Graphics/SVG/1.1/DTD/svg11.dtd">
<svg version="1.1" xmlns="http://www.w3.org/2000/svg" xmlns:xlink="http://www.w3.org/1999/xlink" width="35" height="35" viewBox="0 0 35 35">
<path d="M17.5 3.281c-7.853 0-14.219 6.366-14.219 14.219s6.366 14.219 14.219 14.219 14.219-6.366 14.219-14.219-6.366-14.219-14.219-14.219zM17.5 29.531c-6.645 0-12.031-5.387-12.031-12.031s5.387-12.031 12.031-12.031 12.031 5.387 12.031 12.031-5.387 12.031-12.031 12.031zM19.211 19.444c0.664-0.608 1.123-1.074 1.378-1.398 0.384-0.489 0.664-0.957 0.842-1.402 0.176-0.446 0.265-0.917 0.265-1.41 0-0.867-0.31-1.594-0.927-2.177s-1.468-0.875-2.55-0.875c-0.987 0-1.809 0.252-2.467 0.755s-1.050 1.332-1.174 2.488l2.093 0.209c0.039-0.613 0.189-1.050 0.448-1.314 0.258-0.264 0.607-0.395 1.046-0.395 0.443 0 0.791 0.126 1.041 0.377 0.252 0.252 0.378 0.613 0.378 1.081 0 0.423-0.145 0.852-0.433 1.286-0.213 0.314-0.795 0.912-1.741 1.794-1.177 1.092-1.964 1.968-2.362 2.628-0.399 0.661-0.639 1.358-0.718 2.097h7.365v-1.948h-4.177c0.11-0.189 0.253-0.384 0.431-0.584 0.175-0.2 0.596-0.604 1.261-1.213z" fill="#000000"></path>
</svg>
