<?xml version="1.0" encoding="utf-8"?>
<!-- Generated by IcoMoon.io -->
<!DOCTYPE svg PUBLIC "-//W3C//DTD SVG 1.1//EN" "http://www.w3.org/Graphics/SVG/1.1/DTD/svg11.dtd">
<svg version="1.1" xmlns="http://www.w3.org/2000/svg" xmlns:xlink="http://www.w3.org/1999/xlink" width="35" height="35" viewBox="0 0 35 35">
<path d="M17.5 3.281c-7.853 0-14.219 6.366-14.219 14.219s6.366 14.219 14.219 14.219 14.219-6.366 14.219-14.219-6.366-14.219-14.219-14.219zM17.5 29.531c-6.645 0-12.031-5.387-12.031-12.031s5.387-12.031 12.031-12.031 12.031 5.387 12.031 12.031-5.387 12.031-12.031 12.031zM18.819 16.836c0.478-0.209 0.849-0.512 1.113-0.909s0.396-0.849 0.396-1.357c0-0.818-0.289-1.493-0.863-2.027-0.576-0.533-1.386-0.8-2.427-0.8-1.052 0-1.863 0.267-2.434 0.8-0.571 0.534-0.856 1.209-0.856 2.027 0 0.479 0.124 0.919 0.37 1.32 0.248 0.401 0.642 0.716 1.186 0.946-0.632 0.27-1.095 0.653-1.389 1.15-0.293 0.497-0.44 1.042-0.44 1.636 0 1.078 0.39 1.928 1.173 2.546 0.662 0.524 1.492 0.786 2.488 0.786 1.071 0 1.929-0.317 2.575-0.952 0.645-0.633 0.968-1.457 0.968-2.471 0-0.615-0.159-1.156-0.475-1.625s-0.777-0.826-1.385-1.071zM16.099 13.769c0.24-0.24 0.56-0.359 0.964-0.359 0.388 0 0.701 0.118 0.937 0.355 0.236 0.236 0.354 0.552 0.354 0.946 0 0.419-0.119 0.747-0.359 0.983-0.24 0.237-0.558 0.355-0.956 0.355-0.394 0-0.708-0.117-0.945-0.351-0.236-0.234-0.354-0.561-0.354-0.98 0-0.394 0.119-0.711 0.359-0.95zM18.176 20.795c-0.285 0.312-0.644 0.468-1.077 0.468-0.443 0-0.814-0.161-1.111-0.486-0.296-0.325-0.444-0.778-0.444-1.356 0-0.415 0.126-0.8 0.378-1.155 0.252-0.354 0.634-0.532 1.147-0.532 0.444 0 0.81 0.156 1.1 0.468 0.289 0.313 0.433 0.726 0.433 1.239 0 0.588-0.142 1.040-0.427 1.353z" fill="#000000"></path>
</svg>
