<?xml version="1.0" encoding="utf-8"?>
<!-- Generated by IcoMoon.io -->
<!DOCTYPE svg PUBLIC "-//W3C//DTD SVG 1.1//EN" "http://www.w3.org/Graphics/SVG/1.1/DTD/svg11.dtd">
<svg version="1.1" xmlns="http://www.w3.org/2000/svg" xmlns:xlink="http://www.w3.org/1999/xlink" width="35" height="35" viewBox="0 0 35 35">
<path d="M17.5 3.281c-7.853 0-14.219 6.366-14.219 14.219s6.366 14.219 14.219 14.219 14.219-6.366 14.219-14.219-6.366-14.219-14.219-14.219zM17.5 29.531c-6.645 0-12.031-5.387-12.031-12.031s5.387-12.031 12.031-12.031 12.031 5.387 12.031 12.031-5.387 12.031-12.031 12.031zM18.865 16.646c1.053-0.574 1.578-1.343 1.578-2.306 0-0.679-0.256-1.287-0.771-1.827-0.625-0.658-1.455-0.988-2.488-0.988-0.605 0-1.151 0.114-1.637 0.34s-0.866 0.539-1.14 0.935c-0.271 0.396-0.476 0.926-0.611 1.59l1.939 0.33c0.056-0.48 0.211-0.844 0.466-1.095 0.256-0.25 0.564-0.375 0.924-0.375 0.365 0 0.66 0.11 0.879 0.329 0.22 0.22 0.33 0.515 0.33 0.885 0 0.435-0.151 0.783-0.452 1.047-0.299 0.263-0.736 0.386-1.307 0.371l-0.233 1.712c0.376-0.105 0.698-0.157 0.968-0.157 0.409 0 0.756 0.154 1.041 0.463s0.428 0.727 0.428 1.255c0 0.557-0.149 1-0.445 1.328-0.297 0.328-0.664 0.492-1.098 0.492-0.405 0-0.75-0.137-1.034-0.41-0.285-0.273-0.459-0.669-0.524-1.188l-2.033 0.247c0.105 0.922 0.483 1.668 1.137 2.239s1.477 0.855 2.47 0.855c1.047 0 1.923-0.338 2.626-1.016 0.704-0.677 1.055-1.496 1.055-2.458 0-0.662-0.188-1.227-0.563-1.695-0.378-0.467-0.879-0.769-1.506-0.903z" fill="#000000"></path>
</svg>
