<?xml version="1.0" encoding="utf-8"?>
<!-- Generated by IcoMoon.io -->
<!DOCTYPE svg PUBLIC "-//W3C//DTD SVG 1.1//EN" "http://www.w3.org/Graphics/SVG/1.1/DTD/svg11.dtd">
<svg version="1.1" xmlns="http://www.w3.org/2000/svg" xmlns:xlink="http://www.w3.org/1999/xlink" width="35" height="35" viewBox="0 0 35 35">
<g id="icomoon-ignore">
</g>
<path d="M35 20.784v-6.569l-5.017-0.836c-0.204-0.62-0.452-1.219-0.741-1.794l2.955-4.137-4.645-4.645-4.13 2.95c-0.578-0.292-1.18-0.543-1.804-0.749l-0.834-5.004h-6.569l-0.834 5.004c-0.623 0.206-1.226 0.456-1.804 0.749l-4.13-2.95-4.645 4.645 2.955 4.137c-0.29 0.575-0.538 1.175-0.741 1.794l-5.017 0.836v6.569l5.028 0.838c0.204 0.614 0.452 1.208 0.74 1.778l-2.965 4.151 4.645 4.645 4.158-2.97c0.567 0.285 1.158 0.531 1.769 0.733l0.84 5.041h6.569l0.84-5.041c0.611-0.202 1.202-0.447 1.769-0.733l4.158 2.97 4.645-4.645-2.965-4.151c0.288-0.57 0.536-1.164 0.74-1.778l5.028-0.838zM17.5 21.875c-2.416 0-4.375-1.959-4.375-4.375s1.959-4.375 4.375-4.375c2.416 0 4.375 1.959 4.375 4.375s-1.959 4.375-4.375 4.375z" fill="#000000"></path>
</svg>
