<?xml version="1.0" encoding="utf-8"?>
<!-- Generated by IcoMoon.io -->
<!DOCTYPE svg PUBLIC "-//W3C//DTD SVG 1.1//EN" "http://www.w3.org/Graphics/SVG/1.1/DTD/svg11.dtd">
<svg version="1.1" xmlns="http://www.w3.org/2000/svg" xmlns:xlink="http://www.w3.org/1999/xlink" width="35" height="35" viewBox="0 0 35 35">
<g id="icomoon-ignore">
</g>
<path d="M8.75 2.188h17.5v4.375h-17.5zM32.813 8.75h-30.625c-1.203 0-2.188 0.984-2.188 2.188v10.938c0 1.203 0.984 2.188 2.188 2.188h6.563v8.75h17.5v-8.75h6.563c1.203 0 2.188-0.984 2.188-2.188v-10.938c0-1.203-0.984-2.188-2.188-2.188zM24.063 30.625h-13.125v-10.938h13.125v10.938zM33.305 12.031c0 0.876-0.71 1.586-1.586 1.586s-1.586-0.71-1.586-1.586 0.71-1.586 1.586-1.586c0.876 0 1.586 0.71 1.586 1.586z" fill="#000000"></path>
</svg>
