<?xml version="1.0" encoding="utf-8"?>
<!-- Generated by IcoMoon.io -->
<!DOCTYPE svg PUBLIC "-//W3C//DTD SVG 1.1//EN" "http://www.w3.org/Graphics/SVG/1.1/DTD/svg11.dtd">
<svg version="1.1" xmlns="http://www.w3.org/2000/svg" xmlns:xlink="http://www.w3.org/1999/xlink" width="35" height="35" viewBox="0 0 35 35">
<g id="icomoon-ignore">
</g>
<path d="M30.446 24.239c-1.56-1.557-3.545-2.361-5.399-2.361h-0.995l-2.184-2.188 8.737-8.751c2.184-2.188 2.184-6.563 0-8.751l-13.106 13.127-13.106-13.127c-2.184 2.188-2.184 6.563 0 8.751l8.737 8.751-2.184 2.188h-0.995c-1.853 0-3.838 0.804-5.399 2.361-2.79 2.784-3.167 6.921-0.842 9.24 1.024 1.022 2.402 1.521 3.862 1.521 1.853 0 3.838-0.804 5.399-2.361 1.831-1.827 2.623-4.238 2.293-6.335l2.235-2.238 2.235 2.238c-0.33 2.097 0.462 4.508 2.293 6.335 1.561 1.557 3.546 2.361 5.399 2.361 1.46 0 2.838-0.499 3.862-1.521 2.325-2.32 1.948-6.457-0.842-9.24zM12.066 28.9c-0.263 0.611-0.65 1.174-1.149 1.672s-1.065 0.886-1.68 1.149c-0.551 0.236-1.127 0.361-1.663 0.361-0.518 0-1.251-0.116-1.807-0.67-0.552-0.55-0.667-1.276-0.667-1.787 0-0.531 0.124-1.101 0.36-1.648 0.263-0.611 0.65-1.174 1.149-1.672s1.065-0.886 1.68-1.149c0.551-0.236 1.127-0.361 1.663-0.361 0.518 0 1.251 0.116 1.807 0.67 0.551 0.55 0.667 1.275 0.667 1.787 0 0.531-0.124 1.101-0.36 1.648zM17.5 22.784c-1.706 0-3.089-1.385-3.089-3.094s1.383-3.094 3.089-3.094 3.089 1.385 3.089 3.094c0 1.709-1.383 3.094-3.089 3.094zM29.233 31.413c-0.555 0.554-1.289 0.67-1.807 0.67-0.537 0-1.112-0.125-1.663-0.361-0.614-0.263-1.179-0.65-1.68-1.149s-0.886-1.061-1.149-1.672c-0.235-0.547-0.36-1.117-0.36-1.648 0-0.512 0.116-1.237 0.667-1.787 0.555-0.554 1.289-0.67 1.807-0.67 0.537 0 1.112 0.125 1.663 0.361 0.614 0.263 1.18 0.65 1.68 1.149s0.886 1.061 1.149 1.672c0.235 0.547 0.36 1.117 0.36 1.648-0 0.512-0.116 1.237-0.667 1.787z" fill="#000000"></path>
</svg>
